<?xml version="1.0" encoding="UTF-8" standalone="no"?>
<!-- Created with Inkscape (http://www.inkscape.org/) -->

<svg
   width="45.5mm"
   height="40mm"
   viewBox="0 0 45.5 40"
   version="1.1"
   id="svg1"
   inkscape:version="1.3.2 (1:1.3.2+202311252150+091e20ef0f)"
   sodipodi:docname="milosoft.svg"
   xmlns:inkscape="http://www.inkscape.org/namespaces/inkscape"
   xmlns:sodipodi="http://sodipodi.sourceforge.net/DTD/sodipodi-0.dtd"
   xmlns="http://www.w3.org/2000/svg"
   xmlns:svg="http://www.w3.org/2000/svg">
  <sodipodi:namedview
     id="namedview1"
     pagecolor="#ffffff"
     bordercolor="#000000"
     borderopacity="0.25"
     inkscape:showpageshadow="2"
     inkscape:pageopacity="0.0"
     inkscape:pagecheckerboard="0"
     inkscape:deskcolor="#d1d1d1"
     inkscape:document-units="mm"
     inkscape:zoom="1.4538721"
     inkscape:cx="1.3756369"
     inkscape:cy="136.87587"
     inkscape:window-width="1850"
     inkscape:window-height="1016"
     inkscape:window-x="70"
     inkscape:window-y="27"
     inkscape:window-maximized="1"
     inkscape:current-layer="layer1" />
  <defs
     id="defs1" />
  <g
     inkscape:label="Layer 1"
     inkscape:groupmode="layer"
     id="layer1">
    <path
       d="m 45.223722,5.6951207 c -8.73125,3.6248079 -12.96459,1.587498 -16.72167,-0.9525 l -4.23333,14.9225683 c 3.78354,2.56648 8.33437,4.68315 16.72166,0.92605 l 4.31271,-14.8961183 z"
       fill="#91c300"
       id="path1"
       style="fill:#ffc300;fill-opacity:1;stroke-width:0.264583" />
    <path
       d="m 16.913302,35.725419 c -3.783528,-2.54 -7.9374643,-4.65666 -16.6686663,-1.03187 l 4.286226,-14.97544 c 8.7312023,-3.59835 12.9645203,-1.56105 16.7480603,1.00542 z"
       fill="#00b4f1"
       id="path2"
       style="fill:#f8682c;fill-opacity:1;stroke-width:0.264583" />
    <path
       d="m 21.993302,18.024769 a 14.261042,14.261042 0 0 0 -8.202071,-2.98981 c -2.301868,-0.0265 -5.0535233,0.635 -8.5195423,2.06376 L 9.5579147,2.1761627 C 18.315592,-1.4486293 22.522472,0.58866271 26.306012,3.1551207 Z"
       fill="#f8682c"
       id="path3"
       style="fill:#00b4f1;fill-opacity:1;stroke-width:0.264583"
       inkscape:label="path3" />
    <path
       d="m 23.527882,22.178749 c 3.81,2.54001 8.01688,4.5773 16.74813,0.9525 l -4.31271,14.86959 c -8.73125,3.62479 -12.93813,1.5875 -16.72167,-0.97896 l 4.31271,-14.84313 z"
       fill="#ffc300"
       id="path4"
       style="fill:#91c300;fill-opacity:1;stroke-width:0.264583" />
  </g>
</svg>
