<?xml version="1.0" encoding="UTF-8" standalone="no"?>
<!-- Created with Inkscape (http://www.inkscape.org/) -->

<svg
   width="50.5mm"
   height="44.5mm"
   viewBox="0 0 50.5 44.5"
   version="1.1"
   id="svg1"
   inkscape:version="1.3.2 (1:1.3.2+202311252150+091e20ef0f)"
   sodipodi:docname="navbar_nanosoft.svg"
   xmlns:inkscape="http://www.inkscape.org/namespaces/inkscape"
   xmlns:sodipodi="http://sodipodi.sourceforge.net/DTD/sodipodi-0.dtd"
   xmlns="http://www.w3.org/2000/svg"
   xmlns:svg="http://www.w3.org/2000/svg">
  <sodipodi:namedview
     id="namedview1"
     pagecolor="#ffffff"
     bordercolor="#000000"
     borderopacity="0.25"
     inkscape:showpageshadow="2"
     inkscape:pageopacity="0.0"
     inkscape:pagecheckerboard="0"
     inkscape:deskcolor="#d1d1d1"
     inkscape:document-units="mm"
     inkscape:zoom="2.0560856"
     inkscape:cx="60.795133"
     inkscape:cy="71.008715"
     inkscape:window-width="1850"
     inkscape:window-height="1016"
     inkscape:window-x="70"
     inkscape:window-y="27"
     inkscape:window-maximized="1"
     inkscape:current-layer="layer1" />
  <defs
     id="defs1" />
  <g
     inkscape:label="Layer 1"
     inkscape:groupmode="layer"
     id="layer1">
    <path
       d="m 48.658176,6.6906711 c -8.73125,3.6248079 -12.96459,1.587498 -16.72167,-0.9525 l -4.23333,14.9225679 c 3.78354,2.56648 8.33437,4.68315 16.72166,0.92605 l 4.31271,-14.8961179 z"
       fill="#91c300"
       id="path1"
       style="fill:#ffc300;fill-opacity:1;stroke:#000000;stroke-width:2;stroke-dasharray:none;stroke-opacity:1" />
    <path
       d="m 18.231088,38.837637 c -3.783528,-2.54 -7.937465,-4.65666 -16.6686676,-1.03187 l 4.2862261,-14.97544 c 8.7312035,-3.59835 12.9645215,-1.56105 16.7480615,1.00542 z"
       fill="#00b4f1"
       id="path2"
       style="fill:#f8682c;fill-opacity:1;stroke:#000000;stroke-width:2;stroke-dasharray:none;stroke-opacity:1" />
    <path
       d="m 23.311088,19.020319 a 14.261042,14.261042 0 0 0 -8.202071,-2.98981 c -2.301868,-0.0265 -5.053524,0.635 -8.5195435,2.06376 L 10.8757,3.1717131 c 8.757678,-3.62479207 12.964558,-1.5875 16.748098,0.978958 z"
       fill="#f8682c"
       id="path3"
       style="fill:#225ad8;fill-opacity:1;stroke:#000000;stroke-width:2;stroke-dasharray:none;stroke-opacity:1"
       inkscape:label="path3" />
    <path
       d="m 27.155784,25.384566 c 3.81,2.54001 7.823432,4.483701 16.554682,0.858901 l -4.31271,14.86959 c -8.73125,3.62479 -12.93813,1.5875 -16.72167,-0.97896 l 4.31271,-14.84313 z"
       fill="#ffc300"
       id="path4"
       style="fill:#6a8f00;fill-opacity:1;stroke:#000000;stroke-width:2;stroke-dasharray:none;stroke-opacity:1"
       sodipodi:nodetypes="cccccc" />
  </g>
</svg>
